<svg xmlns="http://www.w3.org/2000/svg" width="23.116" height="23.116" viewBox="0 0 23.116 23.116">
  <g id="Group_102" data-name="Group 102" transform="translate(-890.565 -188.409)">
    <path id="Path_124" data-name="Path 124" d="M513.681,73.968a11.558,11.558,0,1,1-11.557-11.559A11.557,11.557,0,0,1,513.681,73.968Z" transform="translate(400 126)" fill="#099dae"/>
    <g id="Group_48" data-name="Group 48" transform="translate(400 126)">
      <path id="Path_126" data-name="Path 126" d="M497.923,72.388s-.557-.211-.651-.069a1.652,1.652,0,0,0-.084,1.039,2.054,2.054,0,0,0,.573.991,1.665,1.665,0,0,0,.7.105A15.782,15.782,0,0,0,497.923,72.388Z" fill="#fa9884"/>
      <path id="Path_127" data-name="Path 127" d="M506.415,72.388s.559-.211.652-.069a1.654,1.654,0,0,1,.082,1.039,2.03,2.03,0,0,1-.572.991,1.665,1.665,0,0,1-.7.105A15.944,15.944,0,0,1,506.415,72.388Z" fill="#fa9884"/>
    </g>
    <path id="Path_128" data-name="Path 128" d="M504.786,79.245a1.748,1.748,0,0,1-.742-1.453,16.893,16.893,0,0,1,.244-2.4H499.96a16.662,16.662,0,0,1,.242,2.4,1.743,1.743,0,0,1-.742,1.453l2.664,4.19Z" transform="translate(400 126)" fill="#ffc2ab"/>
    <path id="Path_129" data-name="Path 129" d="M504.054,77.249c.056-.766.234-1.854.234-1.854H499.96s.166,1.01.226,1.768a4,4,0,0,0,1.983,1.1A3.839,3.839,0,0,0,504.054,77.249Z" transform="translate(400 126)" fill="#fa9884"/>
    <path id="Path_130" data-name="Path 130" d="M502.124,85.525a11.5,11.5,0,0,0,7.9-3.142l-.006-.01c-.308-.182-3.109-1.85-4.5-2.64a5.444,5.444,0,0,1-.736-.488l-2.662,4.19-2.664-4.19a5.408,5.408,0,0,1-.734.488c-1.391.79-4.192,2.458-4.5,2.64l-.008.01A11.506,11.506,0,0,0,502.124,85.525Z" transform="translate(400 126)" fill="#f9d967"/>
    <path id="Path_131" data-name="Path 131" d="M504.149,78.409l-1.736,3.275-.289,1.751L503.1,81.9l1.786.555s.347-2.815.365-2.878a.4.4,0,0,0,0-.246c-.037-.066-.924-.918-.924-.918Z" transform="translate(400 126)" fill="#fff"/>
    <path id="Path_132" data-name="Path 132" d="M500.1,78.409l1.734,3.275.291,1.751-.977-1.539-1.787.555s-.347-2.815-.365-2.878a.371.371,0,0,1,0-.246c.037-.066.924-.918.924-.918Z" transform="translate(400 126)" fill="#fff"/>
    <path id="Path_133" data-name="Path 133" d="M502.169,65.4c3.742,0,4.439,3.414,4.426,4.758a19.194,19.194,0,0,1-.825,4.649c-.49,1.81-2.783,2.687-3.6,2.687s-3.111-.877-3.6-2.687a19.151,19.151,0,0,1-.826-4.649C497.731,68.817,498.427,65.4,502.169,65.4Z" transform="translate(400 126)" fill="#ffc2ab"/>
    <path id="Path_134" data-name="Path 134" d="M507.827,69.382a1.411,1.411,0,0,1-.34-.715,3.379,3.379,0,0,0-.652-1.33.923.923,0,0,0,.328-.78.23.23,0,0,0-.223-.194h-.015a2.817,2.817,0,0,1-1.451-.664,5.172,5.172,0,0,0-3.3-1.3,3.146,3.146,0,0,0-3.172,1.428,1.4,1.4,0,0,0-1.457.687,9.111,9.111,0,0,0-.742,2.089,1.978,1.978,0,0,1-.621.94.221.221,0,0,0-.051.254.756.756,0,0,0,.617.408,9.122,9.122,0,0,0,.234,1.371,1.759,1.759,0,0,0,.971,1.064.152.152,0,0,0,.139-.009.157.157,0,0,0,.074-.117,5.323,5.323,0,0,1,.18-.887,2.22,2.22,0,0,0,.33-.584l.013.037a.168.168,0,0,0,.145.088c.166,0,.338-.321.455-.588a3.028,3.028,0,0,0,.18-.768,3.668,3.668,0,0,1,.105-.548c.057-.194.139-.309.221-.309.033,0,.111.017.236.139a.166.166,0,0,0,.125.043.155.155,0,0,0,.111-.069.751.751,0,0,1,.586-.408c.323,0,.727.3,1.274.949a2.954,2.954,0,0,0,1.662.988.18.18,0,0,0,.187-.115c.034-.093-.005-.195-.1-.392a5.639,5.639,0,0,0,1.607.658.167.167,0,0,0,.139-.074.4.4,0,0,0,.041-.213.234.234,0,0,0,.025.019,15.442,15.442,0,0,0,.483,2.063.152.152,0,0,0,.146.109.091.091,0,0,0,.033,0,1.22,1.22,0,0,0,.5-.244.175.175,0,0,0,.032-.035,4.5,4.5,0,0,0,.482-2.4c.236-.04.5-.182.551-.352A.211.211,0,0,0,507.827,69.382Z" transform="translate(400 126)" fill="#242736"/>
  </g>
</svg>
